# ProBuilder 6.1.2
# https://unity3d.com/unity/features/worldbuilding/probuilder
# 29/09/2026 22:29:20

mtllib ./HalfCylinder.mtl
o HalfCylinder

g HalfCylinder
v -0.5 -0.5 0
v -0.5 0.5 0
v -0.4330127 -0.5 0.25
v -0.4330127 0.5 0.25
v -0.25 -0.5 0.4330127
v -0.25 0.5 0.4330127
v 2.185569E-08 -0.5 0.5
v 2.185569E-08 0.5 0.5
v 0.25 -0.5 0.4330127
v 0.25 0.5 0.4330127
v 0.4330127 -0.5 0.25
v 0.4330127 0.5 0.25
v 0.5 -0.5 -4.371139E-08
v 0.5 0.5 -4.371139E-08

vt -0.1294095 -0.5
vt -0.1294095 0.5
vt 0.1294095 -0.5
vt 0.1294095 0.5

vn -0.9659258 0 0.2588191
vn -0.8660254 0 0.5
vn -0.5 0 0.8660254
vn 4.628045E-08 0 1
vn 0.5 0 0.8660254
vn 0.8660254 0 0.5
vn 0.9659258 0 0.258819

usemtl ProBuilderDefault
f 3/3/2 4/4/2 2/2/1 1/1/1
f 5/3/3 6/4/3 4/2/2 3/1/2
f 7/3/4 8/4/4 6/2/3 5/1/3
f 9/3/5 10/4/5 8/2/4 7/1/4
f 11/3/6 12/4/6 10/2/5 9/1/5
f 13/3/7 14/4/7 12/2/6 11/1/6

